<svg width="50" height="50" viewBox="0 0 85 85" fill="none" xmlns="http://www.w3.org/2000/svg">
<rect x="36.8027" y="30.5195" width="10.4349" height="28.5052" fill="white"/>
<path d="M31.8408 47.314V31.9161C27.0899 28.2681 17.3379 23.6191 17.3379 34.2067C17.3379 44.7943 27.0899 47.3564 31.8408 47.314Z" fill="url(#paint0_linear_895_2292)"/>
<path d="M67.5991 38.4085V16.9023H30.9496C11.3521 20.0837 14.0244 38.4085 21.6598 43.8804C18.9874 39.8083 18.6056 31.9185 30.9496 31.9185H47.2383C63.0179 31.9185 63.9087 36.2451 67.5991 38.4085Z" fill="white"/>
<path d="M53.1339 37.6704L53.1339 53.0683C57.8847 56.7162 67.6367 61.3653 67.6367 50.7777C67.6367 40.19 57.8847 37.628 53.1339 37.6704Z" fill="url(#paint1_linear_895_2292)"/>
<path d="M17.3755 46.5759L17.3755 68.082L54.025 68.082C73.6225 64.9007 70.9502 46.5759 63.3148 41.1039C65.9872 45.1761 66.369 53.0659 54.025 53.0659L37.7364 53.0659C21.9567 53.0659 21.0659 48.7392 17.3755 46.5759Z" fill="white"/>
<defs>
<linearGradient id="paint0_linear_895_2292" x1="15.9271" y1="28.7324" x2="31.8646" y2="47.3261" gradientUnits="userSpaceOnUse">
<stop stop-color="white"/>
<stop offset="1" stop-color="white" stop-opacity="0.29"/>
</linearGradient>
<linearGradient id="paint1_linear_895_2292" x1="69.0475" y1="56.252" x2="53.11" y2="37.6582" gradientUnits="userSpaceOnUse">
<stop stop-color="white"/>
<stop offset="1" stop-color="white" stop-opacity="0.29"/>
</linearGradient>
</defs>
</svg>
