<svg width="85" height="85" viewBox="0 0 85 85" fill="none" xmlns="http://www.w3.org/2000/svg">
<rect x="39.6455" y="36.5059" width="5.21746" height="14.2526" fill="white"/>
<path d="M37.1645 44.9031V37.2041C34.7891 35.3802 29.9131 33.0556 29.9131 38.3494C29.9131 43.6433 34.7891 44.9243 37.1645 44.9031Z" fill="url(#paint0_linear_899_2301)"/>
<path d="M55.0427 40.4503V29.6973H36.718C26.9192 31.288 28.2554 40.4503 32.0731 43.1863C30.7369 41.1502 30.546 37.2053 36.718 37.2053H44.8623C52.7521 37.2053 53.1975 39.3687 55.0427 40.4503Z" fill="white"/>
<path d="M47.8101 40.0813L47.8101 47.7802C50.1855 49.6042 55.0615 51.9287 55.0615 46.6349C55.0615 41.3411 50.1855 40.0601 47.8101 40.0813Z" fill="url(#paint1_linear_899_2301)"/>
<path d="M29.9319 44.534L29.9319 55.2871L48.2566 55.2871C58.0554 53.6964 56.7192 44.534 52.9015 41.7981C54.2377 43.8341 54.4286 47.7791 48.2566 47.7791L40.1123 47.7791C32.2225 47.7791 31.7771 45.6157 29.9319 44.534Z" fill="white"/>
<defs>
<linearGradient id="paint0_linear_899_2301" x1="29.2077" y1="35.6123" x2="37.1764" y2="44.9092" gradientUnits="userSpaceOnUse">
<stop stop-color="white"/>
<stop offset="1" stop-color="white" stop-opacity="0.29"/>
</linearGradient>
<linearGradient id="paint1_linear_899_2301" x1="55.7669" y1="49.3721" x2="47.7982" y2="40.0752" gradientUnits="userSpaceOnUse">
<stop stop-color="white"/>
<stop offset="1" stop-color="white" stop-opacity="0.29"/>
</linearGradient>
</defs>
</svg>
