<svg width="2000" height="320" viewBox="0 0 2000 320" fill="none" xmlns="http://www.w3.org/2000/svg">
<path d="M126 34.0008C120 34.0008 114 35.0008 109 38.0008C84 51.0008 82 87.0008 106 102.001C117 109.001 121 118.001 112 118.001C108 118.001 87 129.001 79 136.001C72 142.001 72 143.001 71 160.001C70 171.001 68 180.001 65 185.001C63 191.001 62 194.001 64 195.001C67 200.001 86 208.001 93 208.001C98 208.001 99 209.001 99 213.001C99 220.001 93 231.001 87 239.001C82 244.001 69 251.001 57 255.001C53 256.001 53 258.001 54 268.001C56 284.001 59 294.001 64 299.001C67 302.001 70 303.001 81 302.001C89 301.001 96 300.001 97 300.001C99 298.001 92 288.001 86 286.001C84 285.001 81 282.001 81 280.001C80 279.001 79 276.001 78 274.001C77 271.001 80 269.001 90 263.001C101 256.001 103 254.001 109 241.001C112 233.001 116 226.001 117 226.001C121 226.001 135 248.001 139 259.001C141 265.001 144 275.001 145 281.001L146 293.001L153 292.001C169 290.001 195 272.001 195 263.001C195 260.001 194 260.001 184 261.001C178 261.001 170 263.001 167 263.001C163 264.001 162 264.001 159 255.001C157 249.001 151 239.001 146 231.001L138 218.001L145 204.001C148 196.001 151 186.001 151 182.001V176.001L156 180.001L161 185.001L167 179.001C170 176.001 174 171.001 176 169.001C177 167.001 183 163.001 188 160.001L198 155.001L193 148.001C190 144.001 187 139.001 187 137.001C186 132.001 180 129.001 175 132.001C173 133.001 170 134.001 169 134.001C167 134.001 165 137.001 163 141.001C160 147.001 160 148.001 163 151.001C165 153.001 165 154.001 163 156.001C160 158.001 159 156.001 152 146.001C148 139.001 142 130.001 139 126.001C131 116.001 132 110.001 145 104.001C167 93.0008 172 64.0008 156 45.0008C149 38.0008 137 34.0008 126 34.0008ZM125 36.0008H127C143 37.0008 159 49.0008 163 65.0008C166 81.0008 154 100.001 138 104.001C131 107.001 130 107.001 131 114.001C132 118.001 134 124.001 138 128.001C141 131.001 147 140.001 151 148.001C155 155.001 158 162.001 159 162.001C159 163.001 161 161.001 163 160.001C165 158.001 168 156.001 169 156.001C171 156.001 171 155.001 168 151.001C163 147.001 163 146.001 166 141.001C168 138.001 169 137.001 169 138.001C169 140.001 171 140.001 175 136.001C178 133.001 180 132.001 182 134.001C184 136.001 184 137.001 182 141.001C180 144.001 180 147.001 182 147.001C183 148.001 183 147.001 183 146.001C182 141.001 187 143.001 190 148.001C193 154.001 193 155.001 191 156.001C190 157.001 187 158.001 186 158.001C184 158.001 178 163.001 172 170.001L161 181.001L147 166.001C139 157.001 132 150.001 131 150.001C130 150.001 134 155.001 139 161.001C150 172.001 150 173.001 149 182.001C147 193.001 138 213.001 132 218.001C129 221.001 125 223.001 121 223.001C114 223.001 113 224.001 107 239.001C101 252.001 98 255.001 90 260.001C74 270.001 74 269.001 77 278.001C78 283.001 81 286.001 83 287.001C85 288.001 88 290.001 91 292.001C94 296.001 94 297.001 91 298.001C86 302.001 70 301.001 65 296.001C58 289.001 54 256.001 60 256.001C65 256.001 80 248.001 87 241.001C96 233.001 102 221.001 103 209.001C103 203.001 105 193.001 108 187.001C115 172.001 118 158.001 117 138.001C117 129.001 118 118.001 118 113.001C120 105.001 119 105.001 111 101.001C97 95.0008 89 79.0008 92 63.0008C94 55.0008 104 43.0008 113 39.0008C117 37.0008 121 36.0008 125 36.0008ZM113 120.001V128.001C113 136.001 113 136.001 100 143.001L87 149.001V165.001C87 179.001 87 180.001 83 180.001C81 180.001 79 181.001 79 182.001C79 183.001 78 184.001 76 184.001C75 184.001 73 183.001 72 182.001C72 181.001 73 180.001 74 180.001C76 180.001 77 179.001 77 178.001C77 177.001 76 176.001 75 176.001C73 176.001 72 174.001 73 166.001C75 143.001 76 142.001 89 133.001C95 129.001 104 124.001 107 123.001L113 120.001ZM112 141.001L114 145.001C116 152.001 112 171.001 106 185.001C103 192.001 101 198.001 100 198.001C100 198.001 99 195.001 99 191.001C99 185.001 97 183.001 94 181.001C90 179.001 89 178.001 89 165.001V151.001L101 146.001L112 141.001ZM86 184.001H89C93 184.001 95 185.001 95 186.001C95 189.001 90 189.001 84 186.001C82 185.001 82 185.001 86 184.001ZM71 186.001C72 186.001 73 187.001 73 189.001C73 190.001 72 193.001 72 195.001C70 198.001 70 198.001 68 196.001C66 194.001 66 191.001 67 189.001C67 187.001 70 186.001 71 186.001ZM79 188.001C80 188.001 81 191.001 81 195.001C81 202.001 79 204.001 76 200.001C73 196.001 75 188.001 79 188.001ZM86 190.001C94 190.001 98 193.001 97 199.001C96 205.001 94 207.001 87 205.001C83 204.001 82 190.001 86 190.001ZM135 220.001L142 229.001C145 234.001 151 245.001 155 253.001C158 262.001 162 268.001 163 268.001C163 268.001 169 267.001 175 265.001C181 263.001 187 262.001 190 263.001C194 263.001 194 263.001 189 270.001C186 273.001 178 279.001 171 282.001C164 285.001 156 288.001 153 289.001C148 290.001 148 290.001 147 278.001C145 265.001 139 249.001 130 236.001L124 227.001L130 224.001L135 220.001ZM371 48.0008C358 48.0008 350 52.0008 342 61.0008C331 73.0008 329 88.0008 337 103.001C340 108.001 353 120.001 357 120.001C358 120.001 360 122.001 360 124.001C362 127.001 358 130.001 353 130.001C351 130.001 318 145.001 316 147.001C315 148.001 313 155.001 311 163.001C309 174.001 306 180.001 303 182.001C301 183.001 298 187.001 296 191.001C293 197.001 293 197.001 299 202.001C307 209.001 325 217.001 328 215.001C331 211.001 332 190.001 329 188.001C327 187.001 327 184.001 329 173.001L330 160.001L344 155.001L357 151.001L358 156.001C359 166.001 355 185.001 350 197.001C344 210.001 344 216.001 346 238.001C347 243.001 347 248.001 346 248.001C345 248.001 339 247.001 331 245.001C311 241.001 312 241.001 314 253.001C316 266.001 323 282.001 331 291.001C340 301.001 342 298.001 342 281.001V268.001L352 269.001C364 269.001 362 271.001 367 246.001C369 234.001 373 235.001 380 248.001C386 259.001 386 259.001 382 266.001C381 270.001 376 277.001 373 282.001C370 287.001 368 291.001 368 292.001C369 292.001 377 293.001 387 294.001C405 295.001 427 292.001 427 288.001C427 285.001 419 281.001 409 278.001C404 277.001 400 275.001 400 275.001C399 275.001 401 272.001 402 268.001C407 259.001 406 254.001 395 238.001L386 223.001L390 211.001C393 205.001 395 196.001 395 191.001C395 184.001 396 184.001 399 187.001C406 193.001 412 191.001 426 178.001C430 175.001 437 171.001 442 169.001C447 167.001 451 165.001 451 164.001C451 164.001 449 159.001 446 155.001C444 151.001 441 147.001 441 145.001C441 144.001 440 142.001 438 140.001C436 138.001 434 138.001 431 140.001C429 141.001 426 142.001 424 142.001C421 142.001 415 153.001 416 157.001C416 160.001 411 168.001 408 168.001C407 168.001 405 165.001 402 161.001C400 157.001 394 149.001 388 143.001C376 130.001 375 125.001 385 120.001C396 115.001 405 105.001 407 95.0008C414 71.0008 396 48.0008 371 48.0008ZM371 51.0008C383 51.0008 395 57.0008 401 67.0008C411 83.0008 404 108.001 387 116.001C382 118.001 377 120.001 376 120.001C372 120.001 377 137.001 382 141.001C385 143.001 392 151.001 397 158.001C402 165.001 406 172.001 407 172.001C407 173.001 410 171.001 413 168.001C416 165.001 420 162.001 421 162.001C423 162.001 423 161.001 421 158.001C418 155.001 418 154.001 420 149.001C421 147.001 423 144.001 424 144.001C425 144.001 425 145.001 424 146.001C422 150.001 425 148.001 430 144.001C433 141.001 434 140.001 437 142.001C438 144.001 439 146.001 438 148.001C438 150.001 439 152.001 440 153.001C442 154.001 443 155.001 442 156.001C441 158.001 439 157.001 436 154.001C431 150.001 431 150.001 436 156.001C440 160.001 443 161.001 444 160.001C445 158.001 445 158.001 446 160.001C448 163.001 446 165.001 437 168.001C434 170.001 428 173.001 424 176.001C421 179.001 415 183.001 411 185.001L405 189.001L390 173.001C382 164.001 375 158.001 375 159.001C375 160.001 380 165.001 385 171.001C394 181.001 394 181.001 393 192.001C391 211.001 375 238.001 368 233.001C365 232.001 363 237.001 363 246.001C363 250.001 363 257.001 362 260.001C361 266.001 361 266.001 349 266.001C333 266.001 332 266.001 336 268.001C339 270.001 339 273.001 339 281.001C339 287.001 338 292.001 337 292.001C334 292.001 323 275.001 319 263.001C314 247.001 314 244.001 319 245.001C326 247.001 341 250.001 345 250.001C351 250.001 353 238.001 348 227.001C345 218.001 346 213.001 355 192.001C360 181.001 360 176.001 361 156.001C361 144.001 362 130.001 362 127.001C364 121.001 363 120.001 357 117.001C342 110.001 335 100.001 335 85.0008C335 74.0008 339 67.0008 348 59.0008C355 53.0008 363 51.0008 371 51.0008ZM355 132.001C356 132.001 357 135.001 357 140.001V147.001L343 152.001C335 155.001 329 158.001 328 159.001C328 160.001 326 166.001 325 173.001L323 185.001C323 185.001 319 186.001 314 187.001C307 188.001 305 188.001 305 185.001C305 183.001 306 182.001 308 183.001C310 184.001 311 183.001 311 180.001C311 178.001 313 170.001 315 162.001L318 149.001L335 141.001C345 136.001 354 132.001 355 132.001ZM301 188.001C302 188.001 303 189.001 305 190.001C307 191.001 313 194.001 318 196.001C327 199.001 327 200.001 327 205.001C326 213.001 324 213.001 313 208.001C307 204.001 305 202.001 305 199.001C305 196.001 305 196.001 304 198.001C301 201.001 297 196.001 299 191.001C299 189.001 300 188.001 301 188.001ZM317 189.001C320 189.001 326 190.001 327 191.001V194.001C326 196.001 315 192.001 315 190.001C315 190.001 316 189.001 317 189.001ZM384 227.001C385 227.001 386 228.001 387 231.001C389 233.001 394 240.001 398 246.001L404 256.001L400 266.001L396 276.001C395 277.001 399 278.001 403 279.001C407 280.001 413 282.001 417 284.001C423 287.001 423 287.001 420 288.001C416 290.001 373 291.001 373 289.001C373 289.001 377 283.001 380 276.001C384 269.001 387 261.001 387 259.001C387 257.001 385 250.001 381 245.001C376 234.001 376 234.001 380 230.001C382 228.001 383 227.001 384 227.001ZM615 33.0008C610 33.0008 605 34.0008 600 36.0008C572 49.0008 570 86.0008 597 102.001C605 106.001 606 107.001 604 112.001C604 115.001 603 121.001 602 125.001C602 130.001 599 140.001 595 149.001L587 164.001L591 172.001C595 179.001 595 180.001 592 187.001C589 196.001 589 208.001 592 213.001C594 215.001 595 221.001 595 225.001C595 232.001 595 232.001 589 231.001C583 230.001 583 230.001 584 234.001C585 237.001 587 242.001 589 246.001C591 252.001 591 253.001 587 261.001C585 265.001 580 273.001 576 279.001C572 284.001 569 289.001 569 290.001C569 291.001 572 292.001 575 293.001C593 296.001 628 293.001 628 288.001C628 287.001 625 285.001 623 283.001C619 280.001 618 277.001 617 268.001V257.001L623 256.001C640 252.001 642 250.001 641 243.001C640 240.001 637 233.001 634 227.001C630 222.001 629 218.001 630 219.001C632 219.001 635 218.001 636 216.001C639 213.001 639 211.001 638 204.001C636 198.001 637 194.001 639 187.001C644 174.001 641 156.001 632 135.001C623 114.001 622 106.001 626 106.001C628 106.001 632 104.001 637 101.001C655 90.0008 660 66.0008 648 50.0008C640 38.0008 628 32.0008 615 33.0008ZM617 35.0008C624 35.0008 633 38.0008 640 44.0008C652 54.0008 655 70.0008 647 86.0008C643 95.0008 630 104.001 621 104.001C618 104.001 617 105.001 619 107.001C620 108.001 621 111.001 621 112.001C621 114.001 624 122.001 627 129.001C637 150.001 640 167.001 637 181.001C635 193.001 633 196.001 628 192.001C627 191.001 625 190.001 624 191.001C623 192.001 618 186.001 614 179.001C606 165.001 606 164.001 619 144.001C622 139.001 623 136.001 621 138.001C616 142.001 605 161.001 605 165.001C605 167.001 609 174.001 612 181.001C618 191.001 619 194.001 617 196.001C615 198.001 615 198.001 617 198.001C618 198.001 620 197.001 620 196.001C622 193.001 629 194.001 632 198.001C636 202.001 636 202.001 632 201.001C629 200.001 629 200.001 634 206.001C638 211.001 638 213.001 635 214.001C631 217.001 630 217.001 627 213.001C625 210.001 625 210.001 628 208.001C629 207.001 630 206.001 628 206.001C625 206.001 615 216.001 616 218.001C617 218.001 619 217.001 620 215.001C622 213.001 624 212.001 625 213.001C626 214.001 625 216.001 623 217.001C616 222.001 612 221.001 610 215.001C610 212.001 606 201.001 602 191.001C598 181.001 594 171.001 593 168.001C591 164.001 592 160.001 600 145.001C604 135.001 609 126.001 609 125.001C610 124.001 609 124.001 607 125.001C605 126.001 605 125.001 606 120.001C609 106.001 609 106.001 600 100.001C588 94.0008 583 87.0008 581 75.0008C578 52.0008 597 35.0008 617 35.0008ZM596 183.001L600 192.001C602 197.001 605 205.001 607 211.001C608 216.001 608 220.001 608 220.001C603 220.001 597 216.001 595 212.001C591 206.001 591 202.001 594 191.001L596 183.001ZM601 220.001C604 220.001 609 227.001 609 231.001C609 234.001 603 236.001 601 233.001C599 231.001 599 220.001 601 220.001ZM623 221.001C626 221.001 628 224.001 632 231.001C641 246.001 641 247.001 630 251.001C625 252.001 618 254.001 615 255.001C610 256.001 610 257.001 612 260.001C614 262.001 615 265.001 615 270.001C614 280.001 611 280.001 603 269.001C597 261.001 587 239.001 587 234.001C587 233.001 592 234.001 598 235.001C608 238.001 616 239.001 620 238.001C621 238.001 619 235.001 616 231.001L611 225.001L618 222.001C620 222.001 622 221.001 623 221.001ZM613 232.001C615 232.001 615 233.001 615 234.001C615 235.001 615 236.001 613 236.001C612 236.001 611 235.001 611 234.001C611 233.001 612 232.001 613 232.001ZM592 256.001L596 262.001C598 266.001 599 271.001 599 273.001C598 277.001 598 278.001 603 279.001C607 280.001 613 282.001 617 283.001C624 286.001 624 287.001 620 288.001C616 290.001 573 291.001 573 289.001C573 289.001 576 284.001 580 278.001C584 273.001 588 266.001 589 262.001L592 256.001ZM871 19.0008C849 18.0008 829 38.0008 832 61.0008C834 73.0008 840 81.0008 851 88.0008C858 92.0008 861 96.0008 861 98.0008C861 101.001 854 109.001 842 121.001L823 139.001L825 160.001C827 176.001 827 184.001 825 192.001C822 204.001 824 206.001 835 206.001C838 206.001 841 207.001 841 208.001C841 211.001 821 239.001 809 253.001L797 266.001L801 276.001C804 281.001 808 287.001 810 290.001C814 294.001 815 295.001 830 293.001C849 292.001 853 290.001 845 283.001C842 280.001 838 278.001 836 278.001C834 278.001 830 277.001 829 274.001C825 271.001 826 270.001 836 254.001C842 245.001 850 232.001 854 225.001C859 215.001 862 212.001 866 211.001C872 210.001 883 215.001 883 219.001C883 219.001 880 221.001 875 222.001C864 226.001 863 227.001 865 232.001C874 249.001 910 273.001 909 262.001C909 258.001 902 243.001 900 241.001C895 239.001 897 235.001 905 230.001C910 227.001 913 224.001 913 222.001C913 221.001 907 214.001 900 207.001L887 194.001L890 185.001C894 177.001 894 177.001 902 178.001C907 178.001 912 180.001 914 181.001C922 187.001 927 185.001 932 175.001C934 170.001 936 162.001 937 157.001C938 150.001 937 149.001 933 148.001C928 146.001 915 148.001 912 151.001C911 152.001 910 154.001 911 156.001C912 158.001 910 158.001 904 158.001C898 157.001 896 156.001 896 152.001C895 145.001 887 122.001 882 112.001C878 104.001 878 92.0008 881 92.0008C882 92.0008 887 89.0008 892 86.0008C916 70.0008 913 34.0008 886 22.0008C881 20.0008 876 19.0008 871 19.0008ZM871 21.0008C879 21.0008 887 24.0008 893 30.0008C906 40.0008 909 58.0008 901 73.0008C896 81.0008 883 90.0008 875 90.0008C872 90.0008 871 91.0008 873 92.0008C874 92.0008 875 96.0008 876 100.001C877 104.001 880 115.001 885 125.001C891 141.001 892 145.001 892 159.001C892 172.001 892 177.001 887 186.001L882 196.001L888 199.001C897 205.001 909 218.001 909 222.001C909 224.001 906 228.001 898 232.001C890 236.001 888 238.001 891 238.001C894 238.001 897 241.001 900 247.001C903 252.001 905 257.001 905 259.001C904 264.001 889 256.001 878 243.001C867 232.001 865 228.001 871 227.001C873 226.001 878 224.001 882 222.001L890 219.001L881 213.001C875 209.001 870 208.001 864 208.001H855L856 199.001C857 190.001 855 183.001 851 180.001C850 179.001 850 176.001 853 172.001C857 164.001 861 147.001 861 140.001C861 137.001 863 134.001 864 133.001C866 132.001 867 131.001 867 130.001C867 128.001 853 136.001 843 143.001L839 146.001L842 163.001C845 178.001 845 179.001 842 182.001C839 184.001 839 185.001 844 184.001C848 183.001 850 184.001 852 187.001C856 192.001 856 195.001 853 193.001C851 192.001 851 193.001 852 198.001C854 206.001 848 209.001 844 203.001C842 200.001 841 200.001 840 202.001C839 204.001 828 204.001 826 202.001C826 201.001 827 197.001 828 192.001C829 186.001 829 176.001 828 162.001L826 140.001L840 126.001C848 119.001 858 111.001 861 108.001C865 106.001 867 104.001 866 104.001C864 104.001 863 102.001 863 98.0008C863 92.0008 862 90.0008 855 87.0008C850 85.0008 844 80.0008 841 75.0008C834 65.0008 833 48.0008 840 38.0008C848 27.0008 859 21.0008 871 21.0008ZM858 136.001C860 136.001 857 153.001 853 164.001C851 170.001 848 174.001 848 174.001C847 174.001 845 170.001 845 165.001C844 160.001 843 154.001 842 152.001C841 148.001 843 146.001 849 142.001C854 139.001 858 136.001 858 136.001ZM929 150.001C936 150.001 937 153.001 933 160.001C931 164.001 923 166.001 920 162.001C920 161.001 920 158.001 921 155.001C922 151.001 923 150.001 929 150.001ZM915 152.001C917 152.001 917 154.001 917 157.001C917 159.001 916 163.001 915 164.001C914 166.001 913 165.001 913 160.001C913 156.001 914 152.001 915 152.001ZM905 162.001C909 162.001 911 163.001 911 165.001C911 167.001 912 168.001 914 169.001C916 169.001 914 176.001 911 176.001C910 176.001 909 175.001 909 173.001C909 170.001 909 170.001 907 172.001C904 176.001 895 175.001 895 171.001C895 165.001 898 162.001 905 162.001ZM928 167.001C931 167.001 931 167.001 931 169.001C931 171.001 929 172.001 924 172.001C915 172.001 916 168.001 925 167.001H928ZM925 174.001C928 174.001 928 175.001 926 179.001C926 181.001 924 182.001 924 182.001C914 180.001 913 176.001 922 175.001C923 174.001 925 174.001 925 174.001ZM842 197.001C840 197.001 836 197.001 833 198.001C829 199.001 829 200.001 832 200.001C835 200.001 839 199.001 841 198.001C845 197.001 846 197.001 842 197.001ZM852 209.001C853 209.001 854 210.001 855 210.001C857 211.001 856 215.001 848 228.001C843 238.001 835 251.001 830 258.001L821 271.001L826 275.001C828 278.001 832 280.001 833 280.001C835 280.001 839 282.001 841 283.001C845 286.001 845 287.001 843 288.001C842 289.001 834 290.001 827 290.001C814 290.001 813 290.001 809 284.001C807 281.001 804 276.001 803 272.001C801 267.001 802 266.001 812 254.001C818 248.001 827 236.001 832 228.001C838 220.001 843 213.001 843 212.001C845 210.001 849 209.001 852 209.001ZM1123 34.0008C1104 34.0008 1087 48.0008 1086 67.0008C1085 73.0008 1085 80.0008 1086 83.0008C1088 89.0008 1098 102.001 1106 105.001C1115 110.001 1113 114.001 1097 123.001C1089 128.001 1079 134.001 1075 137.001C1068 142.001 1068 142.001 1066 159.001C1066 168.001 1064 181.001 1062 189.001C1060 196.001 1060 203.001 1060 204.001C1061 205.001 1065 207.001 1069 207.001C1073 208.001 1077 210.001 1078 211.001C1080 215.001 1089 209.001 1089 204.001C1089 201.001 1090 198.001 1091 197.001C1094 195.001 1089 180.001 1085 180.001C1084 180.001 1083 174.001 1083 166.001V152.001L1094 147.001C1109 140.001 1109 141.001 1109 152.001C1109 163.001 1106 177.001 1099 191.001C1096 198.001 1095 203.001 1096 211.001C1098 229.001 1085 242.001 1061 245.001C1057 246.001 1053 248.001 1052 250.001C1050 254.001 1055 286.001 1057 289.001C1063 296.001 1089 295.001 1089 288.001C1089 286.001 1087 283.001 1085 281.001C1072 270.001 1070 265.001 1079 264.001C1089 262.001 1098 254.001 1105 242.001L1111 230.001L1118 238.001C1131 252.001 1139 275.001 1139 294.001V303.001L1146 301.001C1169 297.001 1199 272.001 1186 267.001C1183 266.001 1170 268.001 1163 271.001C1161 272.001 1159 269.001 1154 259.001C1151 251.001 1145 240.001 1140 233.001L1132 220.001L1139 206.001C1144 196.001 1146 189.001 1147 180.001C1147 174.001 1148 168.001 1149 168.001C1149 168.001 1152 170.001 1156 172.001L1163 176.001L1171 169.001C1175 165.001 1180 162.001 1181 162.001C1187 162.001 1193 157.001 1193 152.001C1193 147.001 1188 133.001 1183 126.001C1180 122.001 1180 121.001 1174 124.001C1171 126.001 1167 130.001 1164 134.001C1160 141.001 1160 141.001 1163 145.001C1165 147.001 1165 149.001 1163 151.001C1161 154.001 1159 152.001 1145 138.001C1127 118.001 1125 112.001 1136 107.001C1169 94.0008 1170 53.0008 1138 38.0008C1133 36.0008 1128 34.0008 1123 34.0008ZM1122 38.0008C1143 37.0008 1158 51.0008 1158 71.0008C1158 77.0008 1156 85.0008 1155 88.0008C1151 96.0008 1140 104.001 1132 105.001C1126 107.001 1126 107.001 1128 116.001C1128 121.001 1131 130.001 1134 136.001C1142 153.001 1146 171.001 1144 182.001C1143 192.001 1132 216.001 1129 216.001C1126 216.001 1127 220.001 1135 230.001C1140 237.001 1152 259.001 1159 274.001C1159 274.001 1164 273.001 1171 271.001C1180 269.001 1184 268.001 1186 270.001C1189 273.001 1175 287.001 1162 293.001C1141 302.001 1141 302.001 1141 292.001C1141 269.001 1132 248.001 1113 229.001C1099 216.001 1098 215.001 1098 206.001C1098 201.001 1100 193.001 1104 186.001C1110 174.001 1114 151.001 1112 145.001C1111 143.001 1112 141.001 1114 140.001C1119 136.001 1103 140.001 1092 145.001L1081 150.001V165.001C1081 177.001 1081 180.001 1078 182.001C1075 184.001 1075 184.001 1080 184.001C1085 183.001 1086 184.001 1088 188.001C1090 194.001 1090 198.001 1087 194.001C1086 192.001 1086 193.001 1086 199.001C1086 205.001 1086 207.001 1083 208.001C1081 208.001 1079 207.001 1078 203.001C1077 200.001 1076 198.001 1072 198.001C1070 198.001 1067 199.001 1066 200.001C1066 202.001 1067 202.001 1070 201.001C1073 200.001 1075 201.001 1075 202.001C1075 204.001 1064 205.001 1063 202.001C1062 202.001 1063 197.001 1064 192.001C1066 187.001 1068 174.001 1069 164.001C1069 153.001 1070 144.001 1071 143.001C1074 139.001 1110 118.001 1115 118.001C1119 118.001 1120 118.001 1118 117.001C1116 116.001 1115 113.001 1115 110.001C1115 107.001 1112 105.001 1108 103.001C1088 95.0008 1081 68.0008 1094 51.0008C1101 42.0008 1110 38.0008 1122 38.0008ZM1178 125.001C1179 125.001 1181 127.001 1182 129.001C1186 134.001 1186 135.001 1181 139.001C1175 146.001 1174 145.001 1171 138.001C1169 132.001 1170 129.001 1175 126.001C1176 126.001 1177 126.001 1178 125.001ZM1138 135.001C1139 134.001 1143 139.001 1149 145.001C1159 157.001 1161 158.001 1165 153.001C1169 149.001 1181 154.001 1178 159.001C1178 160.001 1176 159.001 1174 158.001C1171 156.001 1171 156.001 1172 159.001C1173 162.001 1172 164.001 1169 168.001C1164 173.001 1162 173.001 1154 168.001C1149 164.001 1146 160.001 1142 149.001L1138 135.001ZM1165 138.001C1166 137.001 1168 139.001 1170 142.001C1175 150.001 1174 152.001 1168 145.001C1165 143.001 1164 140.001 1164 138.001H1165ZM1185 138.001C1187 138.001 1187 139.001 1188 141.001C1189 143.001 1188 146.001 1185 148.001C1182 150.001 1181 152.001 1183 152.001C1184 152.001 1186 151.001 1187 150.001C1189 148.001 1190 148.001 1191 151.001C1191 153.001 1191 155.001 1189 156.001C1184 159.001 1182 159.001 1180 152.001C1177 147.001 1177 146.001 1180 142.001C1183 140.001 1184 139.001 1185 138.001ZM1101 222.001C1103 222.001 1104 223.001 1105 225.001C1108 228.001 1107 230.001 1103 238.001C1098 251.001 1090 257.001 1079 261.001C1074 262.001 1070 263.001 1070 263.001C1068 265.001 1075 278.001 1078 279.001C1083 281.001 1088 286.001 1086 288.001C1086 289.001 1080 290.001 1073 290.001C1059 290.001 1057 288.001 1057 266.001L1056 250.001L1067 247.001C1082 243.001 1090 238.001 1094 230.001C1097 225.001 1099 222.001 1101 222.001ZM1373 53.0008C1363 54.0008 1354 57.0008 1347 65.0008C1330 84.0008 1333 110.001 1355 122.001C1364 128.001 1365 131.001 1360 132.001C1351 135.001 1339 141.001 1329 148.001C1319 154.001 1318 156.001 1312 170.001C1309 178.001 1304 190.001 1301 196.001C1298 203.001 1295 209.001 1295 210.001C1295 212.001 1316 221.001 1320 221.001C1322 221.001 1324 220.001 1325 218.001C1325 216.001 1327 213.001 1328 211.001C1330 206.001 1330 198.001 1327 193.001C1325 189.001 1326 185.001 1328 177.001C1331 167.001 1332 166.001 1340 163.001C1345 161.001 1351 159.001 1355 158.001C1361 157.001 1361 157.001 1361 164.001C1361 174.001 1357 189.001 1351 202.001C1347 212.001 1346 224.001 1349 231.001C1350 233.001 1351 237.001 1351 240.001C1351 245.001 1351 245.001 1344 245.001C1340 245.001 1333 244.001 1328 242.001C1324 241.001 1320 239.001 1320 239.001C1318 239.001 1322 260.001 1327 269.001C1332 282.001 1344 294.001 1347 292.001C1350 291.001 1349 278.001 1346 271.001C1345 268.001 1346 267.001 1351 267.001C1354 267.001 1360 266.001 1363 265.001C1369 263.001 1370 262.001 1369 254.001C1369 249.001 1369 245.001 1370 245.001C1371 245.001 1374 249.001 1377 254.001C1381 261.001 1382 265.001 1380 270.001C1379 276.001 1373 291.001 1368 302.001C1367 302.001 1370 304.001 1374 305.001C1382 308.001 1412 306.001 1420 303.001C1423 302.001 1425 300.001 1425 299.001C1423 294.001 1414 289.001 1406 288.001L1398 287.001L1402 273.001C1406 259.001 1406 259.001 1402 253.001C1400 251.001 1395 244.001 1392 239.001L1385 230.001L1392 216.001C1397 206.001 1398 199.001 1398 191.001C1398 184.001 1399 179.001 1400 179.001C1401 179.001 1405 181.001 1409 182.001C1417 185.001 1417 185.001 1425 180.001C1430 178.001 1434 175.001 1435 175.001C1437 175.001 1440 174.001 1444 172.001C1449 169.001 1450 168.001 1448 163.001C1447 155.001 1441 142.001 1437 136.001C1434 132.001 1434 132.001 1426 139.001C1416 149.001 1414 153.001 1419 157.001C1422 161.001 1422 161.001 1419 162.001C1417 163.001 1410 159.001 1400 150.001C1392 143.001 1384 137.001 1383 137.001C1382 137.001 1381 135.001 1381 132.001C1381 129.001 1383 127.001 1386 126.001C1393 125.001 1405 114.001 1409 106.001C1413 99.0008 1413 82.0008 1409 74.0008C1402 60.0008 1387 53.0008 1373 53.0008ZM1374 56.0008C1382 56.0008 1390 59.0008 1397 65.0008C1409 74.0008 1413 90.0008 1407 104.001C1403 113.001 1391 123.001 1383 124.001C1376 126.001 1376 126.001 1377 131.001C1378 134.001 1381 141.001 1384 146.001C1399 177.001 1399 204.001 1383 225.001C1381 228.001 1383 231.001 1391 243.001L1402 258.001L1400 269.001C1398 275.001 1397 282.001 1396 284.001C1395 288.001 1396 289.001 1404 290.001C1413 291.001 1424 298.001 1421 300.001C1421 300.001 1414 302.001 1407 303.001C1393 305.001 1390 305.001 1379 303.001C1371 302.001 1371 301.001 1377 288.001C1380 283.001 1382 274.001 1383 269.001C1384 262.001 1383 259.001 1378 251.001C1374 246.001 1367 239.001 1361 235.001C1347 226.001 1346 220.001 1356 199.001C1360 188.001 1362 180.001 1363 169.001L1364 153.001L1357 154.001C1353 155.001 1345 158.001 1339 161.001C1329 166.001 1328 167.001 1325 179.001C1322 187.001 1320 191.001 1318 191.001C1317 191.001 1316 192.001 1316 193.001C1317 194.001 1319 195.001 1321 195.001C1325 195.001 1327 199.001 1327 204.001C1327 206.001 1327 207.001 1325 206.001C1324 206.001 1323 207.001 1323 209.001C1323 219.001 1316 223.001 1314 214.001C1313 211.001 1312 210.001 1312 211.001C1310 213.001 1303 213.001 1300 210.001C1298 210.001 1301 202.001 1305 193.001C1309 184.001 1314 172.001 1316 167.001C1319 160.001 1322 156.001 1329 151.001C1340 143.001 1357 135.001 1363 135.001C1366 135.001 1367 134.001 1367 130.001C1367 126.001 1365 124.001 1358 121.001C1347 116.001 1339 105.001 1339 92.0008C1339 79.0008 1341 74.0008 1351 65.0008C1358 59.0008 1366 56.0008 1374 56.0008ZM1433 138.001C1434 138.001 1435 139.001 1436 140.001C1438 143.001 1439 145.001 1439 146.001C1439 148.001 1437 151.001 1435 153.001L1430 158.001L1427 152.001C1424 146.001 1424 146.001 1429 141.001C1431 139.001 1432 138.001 1433 138.001ZM1388 144.001C1388 144.001 1395 149.001 1402 156.001C1414 166.001 1416 168.001 1420 166.001C1424 163.001 1433 166.001 1433 170.001C1433 172.001 1433 173.001 1431 173.001C1430 173.001 1429 172.001 1429 171.001C1429 170.001 1429 169.001 1428 169.001C1427 169.001 1426 171.001 1427 173.001C1427 175.001 1426 177.001 1422 179.001C1420 180.001 1416 181.001 1415 181.001C1410 181.001 1397 175.001 1397 173.001C1397 172.001 1395 165.001 1392 158.001C1389 151.001 1387 145.001 1388 144.001ZM1420 151.001C1421 151.001 1423 152.001 1425 155.001C1428 158.001 1429 161.001 1428 161.001C1425 161.001 1419 154.001 1420 151.001ZM1441 152.001C1444 152.001 1444 158.001 1439 161.001C1437 163.001 1435 165.001 1437 165.001C1438 165.001 1440 164.001 1440 163.001C1442 160.001 1445 161.001 1445 165.001C1445 167.001 1444 169.001 1442 170.001C1438 172.001 1438 172.001 1434 165.001C1431 159.001 1432 156.001 1438 153.001C1439 153.001 1440 152.001 1441 152.001ZM1357 237.001H1358C1363 238.001 1365 241.001 1366 251.001C1366 259.001 1366 260.001 1361 263.001C1358 264.001 1353 265.001 1349 264.001C1341 263.001 1340 263.001 1344 273.001C1345 276.001 1345 281.001 1345 284.001L1344 290.001L1338 283.001C1331 275.001 1323 256.001 1323 248.001C1323 244.001 1323 244.001 1334 247.001C1350 251.001 1354 250.001 1354 242.001C1354 238.001 1355 237.001 1357 237.001ZM1615 31.0008H1609C1574 36.0008 1565 81.0008 1594 99.0008C1605 106.001 1606 109.001 1603 116.001C1599 123.001 1593 160.001 1592 175.001C1592 182.001 1591 191.001 1589 196.001C1587 202.001 1587 206.001 1589 211.001C1593 221.001 1592 234.001 1588 234.001C1585 234.001 1585 236.001 1587 243.001C1590 250.001 1585 270.001 1576 289.001C1571 302.001 1571 303.001 1579 305.001C1587 306.001 1616 305.001 1623 302.001C1628 300.001 1629 299.001 1627 296.001C1624 291.001 1613 286.001 1607 286.001C1602 286.001 1601 286.001 1603 281.001C1604 273.001 1604 273.001 1611 278.001C1614 280.001 1618 282.001 1619 282.001C1622 282.001 1622 273.001 1618 265.001C1617 261.001 1615 257.001 1615 257.001C1615 257.001 1618 257.001 1622 258.001C1628 260.001 1637 259.001 1639 257.001C1640 257.001 1639 250.001 1637 242.001C1636 234.001 1635 225.001 1634 222.001C1634 219.001 1633 215.001 1631 213.001C1629 211.001 1630 208.001 1634 197.001C1638 189.001 1639 180.001 1639 173.001C1639 163.001 1638 157.001 1631 130.001C1630 125.001 1627 120.001 1625 118.001C1620 113.001 1622 105.001 1628 103.001C1641 99.0008 1653 83.0008 1653 68.0008C1653 48.0008 1636 31.0008 1615 31.0008ZM1614 34.0008C1621 34.0008 1628 35.0008 1631 37.0008C1634 39.0008 1639 43.0008 1642 46.0008C1658 65.0008 1648 97.0008 1624 101.001C1618 103.001 1618 103.001 1619 110.001C1620 114.001 1623 123.001 1626 130.001C1638 157.001 1640 174.001 1633 193.001C1626 210.001 1623 210.001 1614 189.001L1607 173.001L1613 157.001C1621 134.001 1620 135.001 1618 137.001C1616 138.001 1613 147.001 1610 156.001L1604 173.001L1611 190.001C1618 205.001 1619 207.001 1616 210.001C1612 213.001 1614 213.001 1620 210.001C1623 208.001 1625 209.001 1628 211.001C1632 215.001 1633 219.001 1629 217.001C1626 215.001 1627 218.001 1631 223.001C1633 227.001 1633 229.001 1631 231.001C1629 234.001 1628 234.001 1625 231.001C1623 229.001 1622 229.001 1621 230.001C1621 231.001 1617 233.001 1614 233.001C1607 235.001 1607 235.001 1607 226.001C1607 222.001 1604 208.001 1600 197.001L1593 175.001L1598 150.001C1600 136.001 1603 122.001 1605 119.001C1609 107.001 1608 104.001 1597 98.0008C1590 94.0008 1586 90.0008 1583 84.0008C1575 67.0008 1582 45.0008 1597 37.0008C1601 35.0008 1608 34.0008 1614 34.0008ZM1594 188.001C1596 188.001 1603 216.001 1605 230.001C1608 245.001 1607 259.001 1601 279.001L1598 288.001L1607 289.001C1617 290.001 1627 296.001 1624 299.001C1621 301.001 1581 303.001 1576 301.001C1574 300.001 1575 297.001 1578 290.001C1590 268.001 1597 224.001 1592 211.001C1590 206.001 1590 202.001 1591 196.001C1593 192.001 1594 188.001 1594 188.001ZM1624 222.001C1623 222.001 1620 224.001 1616 227.001C1613 230.001 1611 232.001 1612 232.001C1613 232.001 1615 231.001 1616 230.001C1617 229.001 1620 227.001 1622 225.001C1625 224.001 1626 222.001 1624 222.001ZM1626 235.001H1627C1633 235.001 1633 236.001 1635 245.001L1637 255.001C1637 257.001 1624 256.001 1618 254.001C1615 253.001 1612 253.001 1612 253.001C1611 254.001 1613 258.001 1614 263.001C1616 268.001 1617 273.001 1617 275.001C1616 278.001 1616 278.001 1611 274.001C1606 271.001 1606 269.001 1608 263.001C1609 259.001 1609 252.001 1609 248.001C1609 242.001 1610 242.001 1615 243.001C1621 243.001 1621 243.001 1621 239.001C1621 236.001 1622 235.001 1626 235.001ZM1614 236.001C1616 236.001 1618 237.001 1618 238.001C1619 239.001 1618 240.001 1617 240.001C1615 240.001 1613 239.001 1612 238.001C1612 237.001 1613 236.001 1614 236.001ZM1874 20.0008C1857 20.0008 1845 28.0008 1838 43.0008C1831 60.0008 1838 79.0008 1854 89.0008C1859 92.0008 1863 96.0008 1863 97.0008C1863 102.001 1858 113.001 1853 118.001C1850 121.001 1844 128.001 1841 133.001L1834 143.001L1836 160.001C1837 173.001 1837 177.001 1835 181.001C1833 183.001 1831 188.001 1831 191.001C1829 197.001 1830 198.001 1836 201.001C1840 203.001 1843 206.001 1843 207.001C1843 211.001 1826 245.001 1816 262.001C1804 281.001 1804 284.001 1815 298.001L1820 305.001L1839 304.001C1862 303.001 1865 300.001 1856 292.001C1852 288.001 1847 286.001 1844 286.001C1832 286.001 1832 283.001 1846 251.001C1853 234.001 1859 219.001 1860 217.001C1862 212.001 1873 210.001 1883 213.001C1895 217.001 1893 219.001 1872 224.001C1870 224.001 1881 240.001 1887 247.001C1895 255.001 1907 262.001 1913 262.001C1917 262.001 1915 252.001 1908 242.001L1903 234.001L1910 231.001C1924 225.001 1924 223.001 1907 207.001L1891 192.001L1895 182.001C1897 176.001 1899 172.001 1900 173.001C1911 177.001 1932 182.001 1934 182.001C1937 180.001 1942 156.001 1940 152.001C1940 151.001 1937 150.001 1935 150.001C1932 150.001 1929 149.001 1928 148.001C1926 146.001 1913 151.001 1913 155.001C1913 157.001 1912 157.001 1905 156.001C1900 154.001 1897 153.001 1897 150.001C1897 146.001 1888 118.001 1885 111.001C1880 101.001 1880 95.0008 1887 92.0008C1904 85.0008 1912 72.0008 1911 54.0008C1910 34.0008 1894 20.0008 1874 20.0008ZM1873 23.0008C1887 22.0008 1901 31.0008 1907 44.0008C1915 62.0008 1904 84.0008 1883 90.0008C1877 92.0008 1876 93.0008 1877 98.0008C1877 101.001 1880 108.001 1883 113.001C1885 119.001 1889 131.001 1890 139.001L1892 155.001L1902 158.001C1908 159.001 1913 161.001 1913 162.001C1915 167.001 1917 164.001 1916 159.001C1915 155.001 1916 154.001 1920 152.001C1927 150.001 1928 150.001 1926 152.001C1925 154.001 1927 154.001 1931 153.001C1936 152.001 1938 153.001 1939 155.001C1940 157.001 1939 160.001 1937 161.001C1936 162.001 1935 165.001 1935 167.001C1935 169.001 1935 170.001 1934 170.001C1933 170.001 1931 167.001 1931 164.001C1930 160.001 1929 158.001 1929 158.001C1927 160.001 1931 173.001 1933 173.001C1936 172.001 1936 177.001 1934 179.001C1933 180.001 1920 176.001 1906 172.001L1880 163.001L1878 147.001C1875 130.001 1874 125.001 1872 127.001C1872 127.001 1877 159.001 1878 163.001C1879 165.001 1883 167.001 1887 168.001C1897 171.001 1897 171.001 1888 190.001C1882 202.001 1875 209.001 1867 208.001C1862 207.001 1861 208.001 1854 225.001C1850 235.001 1843 252.001 1838 262.001C1830 280.001 1830 281.001 1833 285.001C1835 287.001 1839 288.001 1842 288.001C1847 288.001 1859 297.001 1857 299.001C1856 300.001 1848 301.001 1839 302.001C1820 303.001 1819 302.001 1812 287.001L1808 280.001L1818 263.001C1836 235.001 1849 205.001 1849 194.001C1849 187.001 1851 179.001 1856 170.001C1862 156.001 1862 153.001 1863 132.001C1863 120.001 1864 105.001 1864 100.001C1866 91.0008 1866 91.0008 1857 87.0008C1829 74.0008 1833 33.0008 1863 24.0008C1866 23.0008 1870 23.0008 1873 23.0008ZM1858 118.001C1859 117.001 1860 120.001 1860 125.001C1862 134.001 1861 135.001 1855 140.001L1849 146.001L1851 158.001C1852 168.001 1852 171.001 1849 178.001C1845 186.001 1842 188.001 1839 185.001C1836 182.001 1837 180.001 1842 180.001C1846 180.001 1846 180.001 1843 178.001C1841 176.001 1839 170.001 1838 159.001L1837 142.001L1844 133.001C1848 127.001 1853 122.001 1855 120.001C1856 118.001 1857 118.001 1858 118.001ZM1860 140.001C1861 141.001 1861 144.001 1859 152.001C1857 164.001 1854 165.001 1853 155.001C1852 149.001 1853 146.001 1856 143.001C1858 141.001 1859 140.001 1860 140.001ZM1836 188.001C1838 188.001 1839 190.001 1839 194.001C1839 201.001 1839 201.001 1836 198.001C1832 194.001 1833 188.001 1836 188.001ZM1844 189.001C1845 189.001 1846 191.001 1846 194.001C1847 199.001 1845 203.001 1843 201.001C1841 199.001 1841 191.001 1843 189.001H1844ZM1890 196.001C1892 196.001 1917 220.001 1917 223.001C1917 224.001 1909 228.001 1901 231.001C1897 232.001 1897 232.001 1901 237.001C1905 242.001 1911 253.001 1911 256.001C1911 265.001 1885 245.001 1878 231.001C1876 227.001 1876 226.001 1885 223.001C1891 221.001 1895 219.001 1895 217.001C1895 216.001 1892 213.001 1888 211.001L1880 208.001L1884 202.001C1886 199.001 1889 196.001 1890 196.001Z" fill="white"/>
</svg>
